<mxfile host="Electron" modified="2024-08-03T14:05:51.498Z" agent="Mozilla/5.0 (Macintosh; Intel Mac OS X 10_15_7) AppleWebKit/537.36 (KHTML, like Gecko) draw.io/22.1.11 Chrome/114.0.5735.289 Electron/25.9.8 Safari/537.36" etag="ZzYDTLcyUjfofcnWWbX4" version="22.1.11" type="device">
  <diagram name="第 1 页" id="9LRAuspSRblDMqozcgn3">
    <mxGraphModel dx="954" dy="589" grid="1" gridSize="10" guides="1" tooltips="1" connect="1" arrows="1" fold="1" page="1" pageScale="1" pageWidth="827" pageHeight="1169" math="0" shadow="0">
      <root>
        <mxCell id="0" />
        <mxCell id="1" parent="0" />
        <mxCell id="Zu0hI2TrgHJZu0FXRil7-5" value="" style="edgeStyle=orthogonalEdgeStyle;rounded=0;orthogonalLoop=1;jettySize=auto;html=1;" edge="1" parent="1" source="Zu0hI2TrgHJZu0FXRil7-1" target="Zu0hI2TrgHJZu0FXRil7-4">
          <mxGeometry relative="1" as="geometry" />
        </mxCell>
        <mxCell id="Zu0hI2TrgHJZu0FXRil7-1" value="IS曲线" style="rounded=0;whiteSpace=wrap;html=1;" vertex="1" parent="1">
          <mxGeometry x="80" y="80" width="120" height="60" as="geometry" />
        </mxCell>
        <mxCell id="Zu0hI2TrgHJZu0FXRil7-12" style="edgeStyle=orthogonalEdgeStyle;rounded=0;orthogonalLoop=1;jettySize=auto;html=1;entryX=0;entryY=0.5;entryDx=0;entryDy=0;" edge="1" parent="1" source="Zu0hI2TrgHJZu0FXRil7-2" target="Zu0hI2TrgHJZu0FXRil7-4">
          <mxGeometry relative="1" as="geometry" />
        </mxCell>
        <mxCell id="Zu0hI2TrgHJZu0FXRil7-2" value="LM曲线" style="rounded=0;whiteSpace=wrap;html=1;" vertex="1" parent="1">
          <mxGeometry x="80" y="160" width="120" height="60" as="geometry" />
        </mxCell>
        <mxCell id="Zu0hI2TrgHJZu0FXRil7-7" value="" style="edgeStyle=orthogonalEdgeStyle;rounded=0;orthogonalLoop=1;jettySize=auto;html=1;" edge="1" parent="1" source="Zu0hI2TrgHJZu0FXRil7-4" target="Zu0hI2TrgHJZu0FXRil7-6">
          <mxGeometry relative="1" as="geometry" />
        </mxCell>
        <mxCell id="Zu0hI2TrgHJZu0FXRil7-4" value="IS-IM模型" style="rounded=0;whiteSpace=wrap;html=1;" vertex="1" parent="1">
          <mxGeometry x="280" y="120" width="120" height="60" as="geometry" />
        </mxCell>
        <mxCell id="Zu0hI2TrgHJZu0FXRil7-10" value="" style="edgeStyle=orthogonalEdgeStyle;rounded=0;orthogonalLoop=1;jettySize=auto;html=1;" edge="1" parent="1" source="Zu0hI2TrgHJZu0FXRil7-6" target="Zu0hI2TrgHJZu0FXRil7-9">
          <mxGeometry relative="1" as="geometry" />
        </mxCell>
        <mxCell id="Zu0hI2TrgHJZu0FXRil7-6" value="总需求曲线" style="rounded=0;whiteSpace=wrap;html=1;" vertex="1" parent="1">
          <mxGeometry x="480" y="120" width="120" height="60" as="geometry" />
        </mxCell>
        <mxCell id="Zu0hI2TrgHJZu0FXRil7-11" style="edgeStyle=orthogonalEdgeStyle;rounded=0;orthogonalLoop=1;jettySize=auto;html=1;entryX=0;entryY=0.5;entryDx=0;entryDy=0;" edge="1" parent="1" source="Zu0hI2TrgHJZu0FXRil7-8" target="Zu0hI2TrgHJZu0FXRil7-9">
          <mxGeometry relative="1" as="geometry" />
        </mxCell>
        <mxCell id="Zu0hI2TrgHJZu0FXRil7-8" value="总供给曲线" style="rounded=0;whiteSpace=wrap;html=1;" vertex="1" parent="1">
          <mxGeometry x="480" y="200" width="120" height="60" as="geometry" />
        </mxCell>
        <mxCell id="Zu0hI2TrgHJZu0FXRil7-9" value="总供给与总需求曲线" style="rounded=0;whiteSpace=wrap;html=1;" vertex="1" parent="1">
          <mxGeometry x="680" y="160" width="120" height="60" as="geometry" />
        </mxCell>
      </root>
    </mxGraphModel>
  </diagram>
</mxfile>
